Coordinates
version=1
nRows=7
nColumns=63
inDegrees=yes

Units are S.I. units (second, meters, Newtons, ...)
If the header above contains a line with 'inDegrees', this indicates whether rotational values are in degrees (yes) or radians (no).

endheader
time	pelvis_tilt	pelvis_list	pelvis_rotation	pelvis_tx	pelvis_ty	pelvis_tz	hip_flexion_r	hip_adduction_r	hip_rotation_r	knee_angle_r	knee_angle_r_beta	ankle_angle_r	subtalar_angle_r	mtp_angle_r	hip_flexion_l	hip_adduction_l	hip_rotation_l	knee_angle_l	knee_angle_l_beta	ankle_angle_l	subtalar_angle_l	mtp_angle_l	L5_S1_Flex_Ext	L5_S1_Lat_Bending	L5_S1_axial_rotation	L4_L5_Flex_Ext	L4_L5_Lat_Bending	L4_L5_axial_rotation	L3_L4_Flex_Ext	L3_L4_Lat_Bending	L3_L4_axial_rotation	L2_L3_Flex_Ext	L2_L3_Lat_Bending	L2_L3_axial_rotation	L1_L2_Flex_Ext	L1_L2_Lat_Bending	L1_L2_axial_rotation	L1_T12_Flex_Ext	L1_T12_Lat_Bending	L1_T12_axial_rotation	Abs_r3	Abs_r2	Abs_r1	Abs_t1	Abs_t2	neck_flexion	neck_bending	neck_rotation	arm_flex_r	arm_add_r	arm_rot_r	elbow_flex_r	pro_sup_r	wrist_flex_r	wrist_dev_r	arm_flex_l	arm_add_l	arm_rot_l	elbow_flex_l	pro_sup_l	wrist_flex_l	wrist_dev_l
      4.93181818	      1.20173287	      1.40721709	    102.19799123	      0.27620963	      0.83924462	      0.51044023	    -10.50128610	      1.71272347	      4.26161005	      0.43034629	      0.00751096	     27.78783418	    -12.46446036	      0.00000000	     -7.77431754	     -1.40077712	     30.21198755	      0.54352743	      0.00948634	     30.13805630	    -15.26243636	      0.00000000	     -0.42965678	      0.34707354	     -1.36621329	     -0.79791561	      0.46160781	     -1.45160162	     -0.70588312	      0.84387461	     -1.45160162	     -0.49105473	      0.84387461	     -1.19543663	     -0.39897929	      0.70775236	     -1.11004830	     -0.24550588	      0.53761691	     -1.02465997	     -3.06899542	      3.92616530	     -7.59846844	      0.00000000	      0.00000000	     19.26802380	     -3.59759530	     -4.10908404	      3.67241098	    -10.87134727	    169.91605925	      1.29928081	      6.78178105	     -1.65873736	     -0.17096336	      1.11359598	     -9.00891712	    150.35492871	      2.42157399	      2.19770475	      3.92001684	     -5.22471293
      4.95454545	      0.87602145	      1.05407515	    102.08613767	      0.27712413	      0.83929616	      0.50931499	    -10.24425513	      1.33839408	      4.36074590	      0.45999993	      0.00802851	     28.21481187	    -12.44491780	      0.00000000	     -7.56706743	     -1.01591777	     29.74878038	      0.56743592	      0.00990363	     29.97819968	    -15.07540968	      0.00000000	     -0.36447657	      0.29102573	     -1.45347480	     -0.67686943	      0.38706422	     -1.54431698	     -0.59879855	      0.70759995	     -1.54431698	     -0.41656027	      0.70759995	     -1.27179045	     -0.33845294	      0.59345966	     -1.18094828	     -0.20826191	      0.45079885	     -1.09010610	     -2.60341967	      3.29214122	     -8.08379082	      0.00000000	      0.00000000	     19.09092006	     -3.16316406	     -3.22855023	      3.83665964	    -10.49397996	    172.46607313	      1.09387930	      8.77926788	     -3.21765753	     -0.95116278	      0.63780960	     -9.21864126	    148.88418397	      2.38560056	      1.96663623	      3.34584624	     -5.05438906
      4.97727273	      0.95144334	      1.04788986	    101.79460080	      0.27784632	      0.83984825	      0.50905564	    -10.20858241	      1.40057719	      4.41598524	      0.47570829	      0.00830268	     28.29532447	    -12.21056580	      0.00000000	     -7.62686143	     -1.08999147	     29.04562830	      0.56881198	      0.00992764	     29.88938637	    -14.86557341	      0.00000000	     -0.36231931	      0.29310432	     -1.45853265	     -0.67286320	      0.38982875	     -1.54969094	     -0.59525440	      0.71265384	     -1.54969094	     -0.41409474	      0.71265384	     -1.27621607	     -0.33644972	      0.59769833	     -1.18505778	     -0.20702926	      0.45401859	     -1.09389949	     -2.58801063	      3.31565469	     -8.11192102	      0.00000000	      0.00000000	     18.94690621	     -2.64512100	     -2.65845063	      4.22349747	    -10.32638918	    175.15140749	      0.92440982	     10.77172074	     -4.71898745	     -1.10748433	      0.66618794	     -9.27817608	    148.42507673	      2.47932028	      2.49467092	      2.58773082	     -5.41560458
      5.00000000	      0.97236182	      1.00171990	    101.83324690	      0.27843456	      0.84030376	      0.50925931	    -10.14728365	      1.47721025	      4.34449922	      0.49227448	      0.00859181	     28.25702940	    -12.23170090	      0.00000000	     -7.59261433	     -1.15287819	     28.83961596	      0.60367585	      0.01053613	     29.64124513	    -14.90563364	      0.00000000	     -0.35637694	      0.28600902	     -1.44599656	     -0.66182761	      0.38039200	     -1.53637134	     -0.58549167	      0.69540233	     -1.53637134	     -0.40730320	      0.69540233	     -1.26524699	     -0.33093163	      0.58322959	     -1.17487220	     -0.20363378	      0.44302797	     -1.08449742	     -2.54556484	      3.23539123	     -8.04219905	      0.00000000	      0.00000000	     18.82801042	     -2.63015437	     -2.60790789	      4.41319823	    -10.11964059	    175.30296321	      0.77690324	     10.90189622	     -4.87926707	     -1.16968127	      0.89194869	     -9.38676652	    148.42980335	      2.38063981	      2.53533569	      2.53189816	     -5.47235452
      5.02272727	      0.85214710	      0.93495365	    101.32525432	      0.27937144	      0.84077375	      0.50928035	    -10.06222453	      1.27331954	      4.52319012	      0.52593400	      0.00917928	     28.16251710	    -11.89581158	      0.00000000	     -7.64705326	     -0.95667825	     27.59782967	      0.62916241	      0.01098096	     29.27063887	    -14.57004726	      0.00000000	     -0.34138115	      0.26591527	     -1.34311108	     -0.63397893	      0.35366731	     -1.42705552	     -0.56085508	      0.64654639	     -1.42705552	     -0.39016451	      0.64654639	     -1.17522220	     -0.31700653	      0.54225442	     -1.09127775	     -0.19506519	      0.41190275	     -1.00733331	     -2.43845138	      3.00808672	     -7.46998091	      0.00000000	      0.00000000	     18.48990403	     -2.19677936	     -2.35615441	      4.57215430	     -9.88510020	    178.17086397	      0.69405310	     13.66890874	     -7.49936140	     -1.44355342	      1.04985451	     -9.52162295	    149.10171786	      2.29992525	      2.85754525	      2.32003430	     -6.69915576
      5.04545455	      0.76802211	      0.91848677	    101.08787237	      0.28010748	      0.84114630	      0.50966747	    -10.02489004	      1.17700411	      4.61459174	      0.54872850	      0.00957712	     28.00384939	    -11.84726799	      0.00000000	     -7.68261779	     -0.85258267	     26.90491917	      0.66171547	      0.01154911	     29.04292504	    -14.40583562	      0.00000000	     -0.33603121	      0.25121568	     -1.22501850	     -0.62404356	      0.33411686	     -1.30158216	     -0.55206568	      0.61080581	     -1.30158216	     -0.38405007	      0.61080581	     -1.07189119	     -0.31203858	      0.51227902	     -0.99532753	     -0.19200823	      0.38913309	     -0.91876387	     -2.40023734	      2.84180205	     -6.81318539	      0.00000000	      0.00000000	     18.13231373	     -2.08190537	     -2.45745974	      4.49319712	     -9.73106210	    177.64794670	      0.65271976	     13.30724697	     -7.68213434	     -2.07019793	      1.41138117	     -9.62896827	    149.50668664	      2.19327641	      2.72568469	      2.99349701	     -7.42565229
      5.06818182	      0.71735937	      0.94746241	    100.86268245	      0.28047001	      0.84147900	      0.51024354	    -10.01849382	      1.09470824	      4.71586815	      0.56738112	      0.00990267	     27.84530384	    -11.76598493	      0.00000000	     -7.72962743	     -0.76400006	     26.15736454	      0.67754004	      0.01182530	     29.05866978	    -13.89756364	      0.00000000	     -0.34130185	      0.24790689	     -1.09069879	     -0.63383167	      0.32971616	     -1.15886746	     -0.56072481	      0.60276081	     -1.15886746	     -0.39007389	      0.60276081	     -0.95436144	     -0.31693290	      0.50553173	     -0.88619277	     -0.19501988	      0.38400777	     -0.81802409	     -2.43788501	      2.80437229	     -6.06613946	      0.00000000	      0.00000000	     17.90733576	     -2.18973400	     -2.74647912	      4.28375411	     -9.70480883	    175.41829470	      0.66213093	     11.47330141	     -6.75139070	     -3.08575382	      1.76727987	     -9.59538910	    150.19504217	      1.85537877	      2.56304833	      3.93949463	     -8.14387098
